<svg width="20" height="21" viewBox="0 0 20 21" fill="none" xmlns="http://www.w3.org/2000/svg">
    <path
        d="M7 0.5C3.14585 0.5 0 3.64585 0 7.5C0 11.3541 3.14585 14.5 7 14.5C8.748 14.5 10.345 13.848 11.5742 12.7812L12 13.207V14.5L17.5859 20.0859C18.1379 20.6379 19.0339 20.6379 19.5859 20.0859C20.1379 19.5339 20.1379 18.6379 19.5859 18.0859L14 12.5H12.707L12.2812 12.0742C13.348 10.845 14 9.248 14 7.5C14 3.64585 10.8541 0.5 7 0.5ZM7 2.5C9.77327 2.5 12 4.72673 12 7.5C12 10.2733 9.77327 12.5 7 12.5C4.22673 12.5 2 10.2733 2 7.5C2 4.72673 4.22673 2.5 7 2.5Z"
        fill="#39A4E8" />
</svg>
    